<svg enable-background="new 0 0 1024 1024" height="1024" image-rendering="optimizeSpeed" viewBox="0 0 1024 1024" width="1024" xmlns="http://www.w3.org/2000/svg"><path d="m965.65 347.3q-8.6-20.85-19.4-40.85c-4.05-7.55-8.35-15.05-12.9-22.4-19.55-31.7-43.4-61.65-71.55-89.8-92.15-92.15-203.45-138.25-333.8-138.25s-241.6 46.1-333.75 138.25-138.25 203.4-138.25 333.75 46.1 241.65 138.25 333.8 203.4 138.2 333.75 138.2 241.65-46.05 333.8-138.2c50.75-50.8 87.55-107.4 110.35-169.75 18.55-50.85 27.85-105.5 27.85-164.05 0-44.9-5.45-87.55-16.4-127.95-1.25-4.55-2.55-9.1-3.9-13.6-4.1-13.3-8.8-26.35-14.05-39.15z" fill-opacity=".098039"/><path d="m968.45 382.15c-1.45-5.2-3-10.4-4.75-16-13-41.4-32.35-80.8-58-118.05-16.7-24.25-36.35-47.7-58.7-70.05-92.3-92.3-203.75-138.45-334.3-138.45s-241.95 46.15-334.25 138.45c-22.3 22.3-41.9 45.7-58.65 70.05-25.55 36.95-44.9 76.35-58.05 118.05-1.75 5.4-3.3 10.7-4.75 16-5.55 20.2-9.75 40.9-12.55 62.05-2.95 22.2-4.45 44.85-4.45 68.1 0 29.8 2.4 58.55 7.15 85.9 2.95 17.3 6.8 33.85 11.5 50 .8 2.75 1.65 5.5 2.4 8.05 12.9 41.35 31.5 80 55.8 116 17.7 26.2 38.15 50.9 61.6 74.35 82.15 82.2 179.5 127.8 291.95 136.75 13.85 1.15 27.95 1.7 42.3 1.7 130.55 0 242-46.15 334.3-138.45 23.55-23.55 44.1-48.35 61.65-74.35 17.35-25.85 31.8-52.9 43.3-81.15 4.6-11.35 8.7-22.9 12.5-34.85.75-2.55 1.6-5.3 2.4-8.05 4.7-16.15 8.5-32.7 11.5-50 4.7-27.35 7.1-56.1 7.1-85.9q0-34.965-4.425-68.1h.025c-2.8-21-7-41.75-12.6-62.05z" fill="#fff"/><path d="m901.55 374.05c-16.7-48.15-43.2-92.75-79.35-133.45-5.9-6.65-12.25-13.35-18.8-19.9-80.45-80.45-177.55-120.65-291.35-120.65s-210.9 40.2-291.35 120.65-120.65 177.55-120.65 291.35 40.2 210.9 120.65 291.35 177.55 120.65 291.35 120.65c44.9 0 87.2-6.25 126.45-18.65 61.4-19.35 116.2-53.3 164.9-102 29-29 52.75-60.15 71.3-93.5q49.35-88.7 49.35-197.85c0-11.9-.45-23.65-1.3-35.3-1-12.3-2.45-24.45-4.4-36.45-3.7-22.75-9.25-44.7-16.8-66.25z" fill="#f7da64"/><path d="m874.7 709.9c.35-.65.7-1.25 1.05-1.85l-.025-.025-125.675-125.675-196-13.95-117.3-117.3-150.7 174.95 293.05 293.05c20.65-3.1 40.4-7.7 59.4-13.7 61.4-19.35 116.2-53.3 164.9-102q43.45-43.5 71.3-93.5z" fill-opacity=".2"/><path d="m748.8 581.05c-6.2-6.15-13.7-9.25-22.45-9.25h-206.35c-8.75 0-16.2 3.1-22.4 9.25-6.15 6.2-9.25 13.6-9.25 22.35s3.1 16.3 9.25 22.45c6.2 6.2 13.65 9.3 22.4 9.3h206.35c8.75 0 16.25-3.1 22.45-9.3 6.2-6.15 9.3-13.7 9.3-22.45s-3.1-16.15-9.3-22.35zm-441.2-246.15c-8.7 0-16.1 3.1-22.3 9.3-6.1 6.1-9.2 13.5-9.2 22.15 0 8.7 3.1 16.1 9.2 22.2l96.25 96.2-96.15 96.15c-6.2 6.2-9.3 13.6-9.35 22.25.05 8.65 3.15 16.1 9.25 22.2 6.2 6.1 13.6 9.15 22.2 9.25 8.75 0 16.15-3.1 22.35-9.25l106.9-107c22.45-22.35 22.45-44.8 0-67.25l-107-107q-9.2-9.2-22.15-9.2z" fill="#333"/></svg>